C:\Users\u0150099\Documents\PredSim_dev\Subjects\test_1\MuscleAnalysis\dummy_motion.mot
version=1
nRows=16
nColumns=32
inDegrees=no
endheader
                time	         pelvis_tilt	         pelvis_list	     pelvis_rotation	           pelvis_tx	           pelvis_ty	           pelvis_tz	       hip_flexion_l	     hip_adduction_l	      hip_rotation_l	       hip_flexion_r	     hip_adduction_r	      hip_rotation_r	        knee_angle_l	        knee_angle_r	       ankle_angle_l	       ankle_angle_r	    subtalar_angle_l	    subtalar_angle_r	         mtp_angle_l	         mtp_angle_r	    lumbar_extension	      lumbar_bending	     lumbar_rotation	          arm_flex_l	           arm_add_l	           arm_rot_l	          arm_flex_r	           arm_add_r	           arm_rot_r	        elbow_flex_l	        elbow_flex_r	
         12.51000000	          0.00000000	          0.00000000	          0.00000000	          0.00000000	          0.00000000	          0.00000000	          0.13493676	          0.20273451	          0.21947519	         -0.40005443	         -0.34198266	         -0.49209930	         -0.30797903	         -0.71296160	          0.20723121	         -0.35099530	         -0.09428159	         -0.25102361	          0.20162463	          0.12184430	          0.43405216	          0.37473962	          0.47098320	         -0.48298723	         -0.22836162	          0.43178556	         -0.23856347	          0.14640175	          0.15092326	          0.33914418	         -0.43759971	
         12.52000000	          0.00000000	          0.00000000	          0.00000000	          0.00000000	          0.00000000	          0.00000000	          0.82243415	          0.01095962	         -0.32893121	          0.16966246	          0.12175529	          0.27949542	         -0.63516239	         -0.43854777	          0.34497393	         -0.07660423	         -0.00349565	         -0.20885756	          0.34268122	          0.37280546	         -0.32745032	         -0.48463406	         -0.33550827	          0.30895824	         -0.36598750	          0.13623335	          0.14018079	         -0.32787486	         -0.03849181	          0.40427381	          0.18120307	
         12.53000000	          0.00000000	          0.00000000	          0.00000000	          0.00000000	          0.00000000	          0.00000000	          0.28000002	          0.31821870	          0.10471072	         -0.64377911	          0.13667278	         -0.50854044	         -1.07104651	         -0.46930782	         -0.08012702	         -0.09097581	          0.45415367	          0.32116773	          0.18505815	          0.77851510	         -0.27925900	          0.12516186	          0.11598550	          0.42087970	         -0.24139639	         -0.18216601	          0.09793682	          0.38038244	          0.40492591	         -0.23839094	         -0.07202790	
         12.54000000	          0.00000000	          0.00000000	          0.00000000	          0.00000000	          0.00000000	          0.00000000	         -0.55269182	         -0.23940678	         -0.07384908	         -0.66777027	          0.12203526	         -0.24694279	         -0.93419914	         -0.00889929	          0.42689661	         -0.07719926	         -0.11448357	         -0.06664930	          0.05016466	          0.50309295	          0.43872557	          0.46426610	         -0.15528320	          0.30143106	          0.20343551	          0.39604640	          0.06058044	         -0.50171130	         -0.23419515	          0.12813412	         -0.45038424	
         12.55000000	          0.00000000	          0.00000000	          0.00000000	          0.00000000	          0.00000000	          0.00000000	          0.05966860	          0.49063557	          0.19370053	          0.56629818	         -0.03258710	          0.35305229	         -1.03013205	         -1.55759544	         -0.20677089	          0.03495111	          0.10715365	          0.18698063	          0.73242353	          0.74704443	          0.38624848	         -0.33440042	         -0.24173017	          0.49588433	          0.05200116	          0.05508111	         -0.34108941	          0.48292257	         -0.13676773	         -0.35438153	          0.24746111	
         12.56000000	          0.00000000	          0.00000000	          0.00000000	          0.00000000	          0.00000000	          0.00000000	         -0.78423708	          0.33940551	         -0.00629553	          0.80587658	          0.44472487	          0.47267261	         -0.67599270	         -0.23377252	          0.04938288	          0.07821804	          0.02536115	          0.29430248	         -0.12663147	         -0.34079582	         -0.11969134	          0.25927576	          0.18505615	          0.09969895	          0.18990573	          0.11257489	         -0.09624411	         -0.07193109	         -0.23713985	         -0.13672090	         -0.40931957	
         12.57000000	          0.00000000	          0.00000000	          0.00000000	          0.00000000	          0.00000000	          0.00000000	         -0.83926465	          0.44958614	          0.33758393	          0.33354448	         -0.12062984	          0.00039665	         -0.38649124	         -1.44002401	         -0.06220672	          0.24465692	         -0.00208213	         -0.14325243	          0.83569654	          0.13458758	          0.12583019	          0.47386346	         -0.02958315	         -0.24480389	          0.10218401	          0.27773026	          0.28369996	         -0.48908380	         -0.29572222	         -0.34187752	          0.12369550	
         12.58000000	          0.00000000	          0.00000000	          0.00000000	          0.00000000	          0.00000000	          0.00000000	          0.71390979	          0.34105797	          0.34373602	          0.55668814	          0.06415677	          0.13630374	         -0.32498580	         -0.21521999	          0.35300214	          0.27520168	         -0.31164341	         -0.51199836	          0.16014337	          0.82955197	         -0.48172677	          0.37090357	         -0.06252243	         -0.29497425	         -0.51866114	         -0.35165440	          0.02904054	         -0.09666294	          0.31754362	         -0.22766209	         -0.28876375	
         12.59000000	          0.00000000	          0.00000000	          0.00000000	          0.00000000	          0.00000000	          0.00000000	         -0.10734963	         -0.22834089	         -0.42913121	         -0.41660300	         -0.05139034	         -0.02442962	         -1.02957864	         -0.95013608	         -0.40348925	          0.09738559	         -0.50210691	         -0.47278679	          0.72275794	          0.17154171	         -0.19827882	         -0.38786588	          0.45621176	         -0.15523203	          0.39629727	          0.39893452	         -0.20153703	          0.30010044	          0.37270159	         -0.45831282	          0.05228719	
         12.60000000	          0.00000000	          0.00000000	          0.00000000	          0.00000000	          0.00000000	          0.00000000	          0.03971144	         -0.43053358	         -0.36724917	          0.75367013	          0.37512989	         -0.19970880	         -0.91850253	         -0.63354145	         -0.43185593	         -0.49315366	          0.52066185	         -0.49182489	          0.59001586	          0.64351459	          0.02106393	          0.25854222	         -0.09114501	          0.06717751	         -0.26507194	         -0.51601673	          0.23486721	         -0.44770658	          0.07175638	          0.25714633	         -0.19432241	
         12.61000000	          0.00000000	          0.00000000	          0.00000000	          0.00000000	          0.00000000	          0.00000000	         -0.78689762	          0.48718173	         -0.19368058	         -0.51354640	         -0.05986872	          0.43011516	         -0.69391637	         -0.27661661	         -0.25927280	         -0.33463018	          0.05464583	         -0.04615347	          0.85704767	          0.17595707	         -0.08063230	          0.32815033	          0.17099962	          0.09272501	          0.40476489	         -0.01210951	          0.50399275	          0.09923630	         -0.47328439	         -0.52187786	         -0.21134342	
         12.62000000	          0.00000000	          0.00000000	          0.00000000	          0.00000000	          0.00000000	          0.00000000	          0.49602632	          0.14319236	         -0.30671507	          0.52602828	          0.33472306	          0.33115876	         -0.77690310	         -1.08750118	          0.01201145	          0.17861800	         -0.44105133	          0.09285167	          0.19138479	          0.33034015	          0.17016593	         -0.49965926	         -0.03418225	         -0.15020589	          0.33239575	          0.36255101	          0.21738084	         -0.00433978	         -0.40329159	          0.34717587	         -0.28787256	
         12.63000000	          0.00000000	          0.00000000	          0.00000000	          0.00000000	          0.00000000	          0.00000000	         -0.08649763	          0.23680735	         -0.26289067	         -0.34049228	          0.46082701	          0.35855530	         -0.86388425	         -1.31750415	          0.41592241	          0.47048677	          0.38998479	         -0.40695332	          0.41979200	          0.10543387	         -0.44049595	         -0.01313142	         -0.29472499	          0.14020122	          0.43143399	          0.05434200	         -0.19898400	          0.08402010	         -0.00069472	          0.00951730	          0.49685199	
         12.64000000	          0.00000000	          0.00000000	          0.00000000	          0.00000000	          0.00000000	          0.00000000	          0.49080936	         -0.47075625	         -0.04810043	          0.13749593	          0.41144970	          0.17183920	         -0.32731734	         -1.48246088	          0.10831019	         -0.38654074	         -0.29902851	          0.36580755	          0.61703175	          0.18011846	          0.21470167	          0.34374446	          0.32920253	         -0.28728213	         -0.39539114	         -0.09184000	          0.25306940	          0.20377827	         -0.43446036	         -0.34940550	          0.25248343	
         12.65000000	          0.00000000	          0.00000000	          0.00000000	          0.00000000	          0.00000000	          0.00000000	          0.57070946	         -0.17084368	          0.04744544	         -0.63989648	         -0.18478118	         -0.11852599	         -0.06789929	         -0.66150996	         -0.51090827	          0.31259643	          0.37123888	         -0.04987686	          0.05813196	          0.67490896	         -0.06670753	         -0.38697625	          0.36484175	         -0.05242144	         -0.24577364	         -0.33317393	          0.11273186	         -0.24992396	         -0.09957188	         -0.52225483	         -0.51977955	
         12.66000000	          0.00000000	          0.00000000	          0.00000000	          0.00000000	          0.00000000	          0.00000000	         -0.24745534	         -0.08079694	         -0.51869510	         -0.29983551	         -0.08508405	         -0.25381119	         -0.86108059	         -0.38349209	         -0.01955545	         -0.19866072	         -0.48939174	         -0.14373223	          0.78469195	         -0.32227293	          0.42134244	         -0.07913266	          0.49616281	          0.46566780	          0.05422299	         -0.00325335	          0.45916395	         -0.37062192	         -0.14116844	          0.17017549	         -0.25738424	
